<svg xmlns='http://www.w3.org/2000/svg' xmlns:xlink='http://www.w3.org/1999/xlink' style='display: none'>
<symbol id="bacon" viewBox="0 0 50 50" preserveAspectRatio="undefined">
	<path fill="#637582" d="M44.5,50H5.6C2.5,50,0,47.5,0,44.4V5.6C0.1,2.5,2.6,0,5.6,0h38.8C47.6,0,50,2.5,50,5.6v38.9
		C50,47.5,47.6,50,44.5,50z"/>
	<polyline opacity="0.15" fill="#272425" enable-background="new" points="5.5,21.1 11.6,10.4 50,26 50,45.1 49.9,46 49.7,46.4
		49.3,47.3 48.8,48.1 47.9,48.9 46.6,49.5 44.9,50 32.4,50 	"/>
  <path opacity="0.7" fill="#FFFFFF" stroke="#414141" stroke-miterlimit="10" enable-background="new" d="M39.9,39.8
    c-1.9-2-10.6-4.8-12.4-6.3c-1.9-1.5-4.2-4.8-8.1-7c-2.5-1.2-5.3-1.7-7.9-2.7c-3.2-1.2-6-2.7-6-2.7l6.1-10.7c0,0,4.6,2.3,7.7,3.6
    c3.1,1.4,5.9,1.5,7.9,2.7c3.5,1.5,7.1,6.6,8.1,7c2.2,0.8,9.7,4.5,11.6,6.5l-7.3,9.5"/>
  <path opacity="0.9" fill="none" stroke="#33424F" stroke-width="2" stroke-miterlimit="10" enable-background="new" d="
    M9.7,13.2c0,0,2.8,1.5,6,2.7c2.6,1,6.3,1.5,9.1,3.3c3.1,1.7,6.6,6,8.8,6.8c2.2,0.8,9.6,4.4,11.5,6.5"/>
  <path opacity="0.9" fill="none" stroke="#33424F" stroke-width="5" stroke-miterlimit="10" enable-background="new" d="
    M7.6,17.1c0,0,3,1.2,6,2.7c2.5,1.3,5.2,2,7.7,3.2c3.5,1.5,7.6,5.8,8.9,6.9c1.6,1.4,10.2,4.1,12.1,6.2"/>
</symbol>
</svg>